<?xml version="1.0" ?><svg id="Apple" viewBox="0 0 512 512" xmlns="http://www.w3.org/2000/svg"><defs><style>.cls-1{fill:#0073b6;}</style></defs><title/><path class="cls-1" d="M454.26,23.47H57.74A34.21,34.21,0,0,0,23.63,57.58V454.1a34.21,34.21,0,0,0,34.11,34.11H454.26a34.21,34.21,0,0,0,34.11-34.11V57.58A34.21,34.21,0,0,0,454.26,23.47Zm-290.4,396H95.39V198.13h68.47ZM129.63,167.09a40.55,40.55,0,1,1,40.55-40.55A40.54,40.54,0,0,1,129.63,167.09ZM422.92,419.52H354V298.1s1.61-24.34-11.41-37c-11.84-11.49-28.3-8.68-28.3-8.68s-18.31.46-28.3,16c-6,9.33-7.76,22.05-8.21,30.7V419.52H209.3V198.13h68.47v26.66c6.2-8.81,17.07-20.54,32.86-26.66,24-9.28,44.61-7.92,62.32-2.58,22.21,6.69,34.88,25.36,39.47,34.54,6.17,12.32,10.5,28.75,10.5,49.3Z"/></svg>